<svg xmlns="http://www.w3.org/2000/svg" xmlns:xlink="http://www.w3.org/1999/xlink" contentStyleType="text/css" data-diagram-type="DESCRIPTION" height="1527px" preserveAspectRatio="none" style="width:1136px;height:1527px;" version="1.1" viewBox="0 0 1136 1527" width="1136px" zoomAndPan="magnify"><defs/><g><!--cluster ?? (Hakku)--><g class="cluster" data-entity=".. .Hakku." data-source-line="19" data-uid="ent0011" id="cluster_.. .Hakku."><rect fill="none" height="1242" rx="2.5" ry="2.5" style="stroke:#181818;stroke-width:1;" width="680.46" x="347.05" y="99.4"/><text fill="#000000" font-family="Apple SD Gothic Neo" font-size="14" font-weight="bold" lengthAdjust="spacing" textLength="76.818" x="648.871" y="114">&#54617;&#44984; (Hakku)</text></g><!--entity UC01--><g class="entity" data-entity="UC01" data-source-line="20" data-uid="ent0012" id="entity_UC01"><ellipse cx="435.2623" cy="762.3994" fill="#F1F1F1" rx="37.2523" ry="14.8794" style="stroke:#181818;stroke-width:0.5;"/><text fill="#000000" font-family="Apple SD Gothic Neo" font-size="14" lengthAdjust="spacing" textLength="48.44" x="411.0423" y="767.2994">&#54924;&#50896;&#44032;&#51077;</text></g><!--entity UC02--><g class="entity" data-entity="UC02" data-source-line="21" data-uid="ent0013" id="entity_UC02"><ellipse cx="435.2574" cy="828.4015" fill="#F1F1F1" rx="67.1074" ry="15.8215" style="stroke:#181818;stroke-width:0.5;"/><text fill="#000000" font-family="Apple SD Gothic Neo" font-size="14" lengthAdjust="spacing" textLength="96.866" x="386.8244" y="833.3015">&#47196;&#44536;&#51064; / &#47196;&#44536;&#50500;&#50883;</text></g><!--entity UC03--><g class="entity" data-entity="UC03" data-source-line="22" data-uid="ent0014" id="entity_UC03"><ellipse cx="435.2621" cy="1025.3964" fill="#F1F1F1" rx="67.2821" ry="15.8564" style="stroke:#181818;stroke-width:0.5;"/><text fill="#000000" font-family="Apple SD Gothic Neo" font-size="14" lengthAdjust="spacing" textLength="97.328" x="386.5981" y="1030.2964">&#50728;&#48372;&#46377;(&#49440;&#54840; &#49444;&#51221;)</text></g><!--entity UC04--><g class="entity" data-entity="UC04" data-source-line="23" data-uid="ent0015" id="entity_UC04"><ellipse cx="435.2624" cy="1101.3955" fill="#F1F1F1" rx="56.1124" ry="25.1455" style="stroke:#181818;stroke-width:0.5;"/><text fill="#000000" font-family="Apple SD Gothic Neo" font-size="14" lengthAdjust="spacing" textLength="80.584" x="394.9704" y="1100.2669">&#45236; &#51221;&#48372;&#183;&#54532;&#47196;&#54596;</text><text fill="#000000" font-family="Apple SD Gothic Neo" font-size="14" lengthAdjust="spacing" textLength="53.172" x="408.6764" y="1117.0669">&#51312;&#54924;/&#49688;&#51221;</text></g><!--entity UC05--><g class="entity" data-entity="UC05" data-source-line="24" data-uid="ent0016" id="entity_UC05"><ellipse cx="435.2574" cy="1177.4015" fill="#F1F1F1" rx="67.1074" ry="15.8215" style="stroke:#181818;stroke-width:0.5;"/><text fill="#000000" font-family="Apple SD Gothic Neo" font-size="14" lengthAdjust="spacing" textLength="96.866" x="386.8244" y="1182.3015">&#54036;&#47196;&#50864; / &#50616;&#54036;&#47196;&#50864;</text></g><!--entity UC06--><g class="entity" data-entity="UC06" data-source-line="25" data-uid="ent0017" id="entity_UC06"><ellipse cx="700.4126" cy="1244.3965" fill="#F1F1F1" rx="69.9326" ry="16.3865" style="stroke:#181818;stroke-width:0.5;"/><text fill="#000000" font-family="Apple SD Gothic Neo" font-size="14" lengthAdjust="spacing" textLength="104.23" x="648.2976" y="1249.2965">AI &#54140;&#49828;&#45328;&#52972;&#47084; &#51652;&#45800;</text></g><!--entity UC07--><g class="entity" data-entity="UC07" data-source-line="26" data-uid="ent0018" id="entity_UC07"><ellipse cx="951.9255" cy="1288.3994" fill="#F1F1F1" rx="59.5855" ry="14.8794" style="stroke:#181818;stroke-width:0.5;"/><text fill="#000000" font-family="Apple SD Gothic Neo" font-size="14" lengthAdjust="spacing" textLength="80.024" x="911.9135" y="1293.2994">&#51652;&#45800; &#44208;&#44284; &#54869;&#51064;</text></g><!--entity UC08--><g class="entity" data-entity="UC08" data-source-line="27" data-uid="ent0019" id="entity_UC08"><ellipse cx="435.2562" cy="894.3972" fill="#F1F1F1" rx="63.9862" ry="15.1972" style="stroke:#181818;stroke-width:0.5;"/><text fill="#000000" font-family="Apple SD Gothic Neo" font-size="14" lengthAdjust="spacing" textLength="88.438" x="391.0372" y="899.2972">&#49345;&#54408; &#51312;&#54924; / &#44160;&#49353;</text></g><!--entity UC09--><g class="entity" data-entity="UC09" data-source-line="28" data-uid="ent0020" id="entity_UC09"><ellipse cx="435.2629" cy="151.4026" fill="#F1F1F1" rx="72.2129" ry="16.8426" style="stroke:#181818;stroke-width:0.5;"/><text fill="#000000" font-family="Apple SD Gothic Neo" font-size="14" lengthAdjust="spacing" textLength="110.026" x="380.2499" y="156.3026">&#49345;&#54408; &#46321;&#47197;/&#49688;&#51221;/&#49325;&#51228;</text></g><!--entity UC10--><g class="entity" data-entity="UC10" data-source-line="29" data-uid="ent0021" id="entity_UC10"><ellipse cx="435.2619" cy="1243.3994" fill="#F1F1F1" rx="56.9819" ry="14.8794" style="stroke:#181818;stroke-width:0.5;"/><text fill="#000000" font-family="Apple SD Gothic Neo" font-size="14" lengthAdjust="spacing" textLength="76.342" x="397.0909" y="1248.2994">&#51109;&#48148;&#44396;&#45768; &#44288;&#47532;</text></g><!--entity UC11--><g class="entity" data-entity="UC11" data-source-line="30" data-uid="ent0022" id="entity_UC11"><ellipse cx="435.2626" cy="1309.3965" fill="#F1F1F1" rx="69.9326" ry="16.3865" style="stroke:#181818;stroke-width:0.5;"/><text fill="#000000" font-family="Apple SD Gothic Neo" font-size="14" lengthAdjust="spacing" textLength="104.23" x="383.1476" y="1314.2965">&#49345;&#54408; &#52252; / &#52252; &#51339;&#50500;&#50836;</text></g><!--entity UC12--><g class="entity" data-entity="UC12" data-source-line="31" data-uid="ent0023" id="entity_UC12"><ellipse cx="435.2629" cy="220.4026" fill="#F1F1F1" rx="72.2129" ry="16.8426" style="stroke:#181818;stroke-width:0.5;"/><text fill="#000000" font-family="Apple SD Gothic Neo" font-size="14" lengthAdjust="spacing" textLength="110.026" x="380.2499" y="225.3026">&#47532;&#48624; &#51089;&#49457;/&#49688;&#51221;/&#49325;&#51228;</text></g><!--entity UC13--><g class="entity" data-entity="UC13" data-source-line="32" data-uid="ent0024" id="entity_UC13"><ellipse cx="435.2555" cy="287.3994" fill="#F1F1F1" rx="59.5855" ry="14.8794" style="stroke:#181818;stroke-width:0.5;"/><text fill="#000000" font-family="Apple SD Gothic Neo" font-size="14" lengthAdjust="spacing" textLength="80.024" x="395.2435" y="292.2994">&#47582;&#52644; &#49345;&#54408; &#52628;&#52380;</text></g><!--entity UC14--><g class="entity" data-entity="UC14" data-source-line="33" data-uid="ent0025" id="entity_UC14"><ellipse cx="700.4058" cy="1310.3994" fill="#F1F1F1" rx="39.8558" ry="14.8794" style="stroke:#181818;stroke-width:0.5;"/><text fill="#000000" font-family="Apple SD Gothic Neo" font-size="14" lengthAdjust="spacing" textLength="52.122" x="674.3448" y="1315.2994">&#51452;&#47928; &#49373;&#49457;</text></g><!--entity UC15--><g class="entity" data-entity="UC15" data-source-line="34" data-uid="ent0026" id="entity_UC15"><ellipse cx="435.2561" cy="352.3994" fill="#F1F1F1" rx="20.1261" ry="14.8794" style="stroke:#181818;stroke-width:0.5;"/><text fill="#000000" font-family="Apple SD Gothic Neo" font-size="14" lengthAdjust="spacing" textLength="24.22" x="423.1461" y="357.2994">&#44208;&#51228;</text></g><!--entity UC16--><g class="entity" data-entity="UC16" data-source-line="35" data-uid="ent0027" id="entity_UC16"><ellipse cx="435.2567" cy="427.3979" fill="#F1F1F1" rx="56.5467" ry="24.9079" style="stroke:#181818;stroke-width:0.5;"/><text fill="#000000" font-family="Apple SD Gothic Neo" font-size="14" lengthAdjust="spacing" textLength="48.44" x="411.0367" y="421.1592">&#52964;&#48036;&#45768;&#54000;</text><text fill="#000000" font-family="Apple SD Gothic Neo" font-size="14" lengthAdjust="spacing" textLength="82.124" x="394.1947" y="437.9592">&#44544;/&#45843;&#44544;/&#51339;&#50500;&#50836;</text></g><!--entity UC17--><g class="entity" data-entity="UC17" data-source-line="36" data-uid="ent0028" id="entity_UC17"><ellipse cx="435.2558" cy="632.3994" fill="#F1F1F1" rx="39.8558" ry="14.8794" style="stroke:#181818;stroke-width:0.5;"/><text fill="#000000" font-family="Apple SD Gothic Neo" font-size="14" lengthAdjust="spacing" textLength="52.122" x="409.1948" y="637.2994">&#50508;&#47548; &#51312;&#54924;</text></g><!--entity UC18--><g class="entity" data-entity="UC18" data-source-line="37" data-uid="ent0029" id="entity_UC18"><ellipse cx="435.2589" cy="959.3994" fill="#F1F1F1" rx="48.4189" ry="14.8794" style="stroke:#181818;stroke-width:0.5;"/><text fill="#000000" font-family="Apple SD Gothic Neo" font-size="14" lengthAdjust="spacing" textLength="64.232" x="403.1429" y="964.2994">&#47588;&#44144;&#51652; &#51312;&#54924;</text></g><!--entity UC19--><g class="entity" data-entity="UC19" data-source-line="38" data-uid="ent0030" id="entity_UC19"><ellipse cx="435.2589" cy="502.3994" fill="#F1F1F1" rx="48.4189" ry="14.8794" style="stroke:#181818;stroke-width:0.5;"/><text fill="#000000" font-family="Apple SD Gothic Neo" font-size="14" lengthAdjust="spacing" textLength="64.232" x="403.1429" y="507.2994">&#47588;&#44144;&#51652; &#44288;&#47532;</text></g><!--entity UC20--><g class="entity" data-entity="UC20" data-source-line="39" data-uid="ent0031" id="entity_UC20"><ellipse cx="435.2555" cy="567.3994" fill="#F1F1F1" rx="59.5855" ry="14.8794" style="stroke:#181818;stroke-width:0.5;"/><text fill="#000000" font-family="Apple SD Gothic Neo" font-size="14" lengthAdjust="spacing" textLength="80.024" x="395.2435" y="572.2994">&#49345;&#54408; &#51204;&#52404; &#44288;&#47532;</text></g><!--entity UC21--><g class="entity" data-entity="UC21" data-source-line="40" data-uid="ent0032" id="entity_UC21"><ellipse cx="435.2626" cy="697.3994" fill="#F1F1F1" rx="51.0126" ry="14.8794" style="stroke:#181818;stroke-width:0.5;"/><text fill="#000000" font-family="Apple SD Gothic Neo" font-size="14" lengthAdjust="spacing" textLength="67.9" x="401.3126" y="702.2994">AI &#52311;&#48391; &#49345;&#45812;</text></g><!--entity guest--><g class="entity" data-entity="guest" data-source-line="8" data-uid="ent0002" id="entity_guest"><ellipse cx="272.55" cy="863.6" fill="#F1F1F1" rx="16" ry="16" style="stroke:#181818;stroke-width:0.5;"/><path d="M272.55,883.6 C276.55,883.6 279.55,883.6 283.55,879.6 C291.55,879.6 299.55,887.6 299.55,895.6 L299.55,899.6 C299.55,903.6 295.55,907.6 291.55,907.6 L253.55,907.6 C249.55,907.6 245.55,903.6 245.55,899.6 L245.55,895.6 C245.55,887.6 253.55,879.6 261.55,879.6 C265.55,883.6 268.55,883.6 272.55,883.6" fill="#F1F1F1" style="stroke:#181818;stroke-width:0.5;"/><text fill="#000000" font-family="Apple SD Gothic Neo" font-size="14" lengthAdjust="spacing" textLength="36.33" x="251.116" y="920.7">&#48708;&#54924;&#50896;</text><text fill="#000000" font-family="Apple SD Gothic Neo" font-size="14" lengthAdjust="spacing" textLength="42.868" x="251.116" y="937.5">(Guest)</text></g><!--entity member--><g class="entity" data-entity="member" data-source-line="9" data-uid="ent0003" id="entity_member"><ellipse cx="152.776" cy="942.6" fill="#F1F1F1" rx="16" ry="16" style="stroke:#181818;stroke-width:0.5;"/><path d="M152.776,962.6 C156.776,962.6 159.776,962.6 163.776,958.6 C171.776,958.6 179.776,966.6 179.776,974.6 L179.776,978.6 C179.776,982.6 175.776,986.6 171.776,986.6 L133.776,986.6 C129.776,986.6 125.776,982.6 125.776,978.6 L125.776,974.6 C125.776,966.6 133.776,958.6 141.776,958.6 C145.776,962.6 148.776,962.6 152.776,962.6" fill="#F1F1F1" style="stroke:#181818;stroke-width:0.5;"/><text fill="#000000" font-family="Apple SD Gothic Neo" font-size="14" lengthAdjust="spacing" textLength="48.44" x="121.5" y="999.7">&#51068;&#48152;&#54924;&#50896;</text><text fill="#000000" font-family="Apple SD Gothic Neo" font-size="14" lengthAdjust="spacing" textLength="62.552" x="121.5" y="1016.5">(NORMAL)</text></g><!--entity seller--><g class="entity" data-entity="seller" data-source-line="10" data-uid="ent0004" id="entity_seller"><ellipse cx="33" cy="503.6" fill="#F1F1F1" rx="16" ry="16" style="stroke:#181818;stroke-width:0.5;"/><path d="M33,523.6 C37,523.6 40,523.6 44,519.6 C52,519.6 60,527.6 60,535.6 L60,539.6 C60,543.6 56,547.6 52,547.6 L14,547.6 C10,547.6 6,543.6 6,539.6 L6,535.6 C6,527.6 14,519.6 22,519.6 C26,523.6 29,523.6 33,523.6" fill="#F1F1F1" style="stroke:#181818;stroke-width:0.5;"/><text fill="#000000" font-family="Apple SD Gothic Neo" font-size="14" lengthAdjust="spacing" textLength="36.33" x="6.218" y="560.7">&#54032;&#47588;&#51088;</text><text fill="#000000" font-family="Apple SD Gothic Neo" font-size="14" lengthAdjust="spacing" textLength="53.564" x="6.218" y="577.5">(SELLER)</text></g><!--entity admin--><g class="entity" data-entity="admin" data-source-line="11" data-uid="ent0005" id="entity_admin"><ellipse cx="272.55" cy="535.6" fill="#F1F1F1" rx="16" ry="16" style="stroke:#181818;stroke-width:0.5;"/><path d="M272.55,555.6 C276.55,555.6 279.55,555.6 283.55,551.6 C291.55,551.6 299.55,559.6 299.55,567.6 L299.55,571.6 C299.55,575.6 295.55,579.6 291.55,579.6 L253.55,579.6 C249.55,579.6 245.55,575.6 245.55,571.6 L245.55,567.6 C245.55,559.6 253.55,551.6 261.55,551.6 C265.55,555.6 268.55,555.6 272.55,555.6" fill="#F1F1F1" style="stroke:#181818;stroke-width:0.5;"/><text fill="#000000" font-family="Apple SD Gothic Neo" font-size="14" lengthAdjust="spacing" textLength="36.33" x="247.28" y="592.7">&#44288;&#47532;&#51088;</text><text fill="#000000" font-family="Apple SD Gothic Neo" font-size="14" lengthAdjust="spacing" textLength="50.54" x="247.28" y="609.5">(ADMIN)</text></g><!--entity ai--><g class="entity" data-entity="ai" data-source-line="12" data-uid="ent0006" id="entity_ai"><ellipse cx="951.93" cy="1457" fill="#F1F1F1" rx="16" ry="16" style="stroke:#181818;stroke-width:0.5;"/><path d="M951.93,1477 C955.93,1477 958.93,1477 962.93,1473 C970.93,1473 978.93,1481 978.93,1489 L978.93,1493 C978.93,1497 974.93,1501 970.93,1501 L932.93,1501 C928.93,1501 924.93,1497 924.93,1493 L924.93,1489 C924.93,1481 932.93,1473 940.93,1473 C944.93,1477 947.93,1477 951.93,1477" fill="#F1F1F1" style="stroke:#181818;stroke-width:0.5;"/><text fill="#000000" font-family="Apple SD Gothic Neo" font-size="14" lengthAdjust="spacing" textLength="53.41" x="925.225" y="1514.1">AI Server</text></g><!--entity toss--><g class="entity" data-entity="toss" data-source-line="13" data-uid="ent0007" id="entity_toss"><ellipse cx="700.41" cy="22" fill="#F1F1F1" rx="16" ry="16" style="stroke:#181818;stroke-width:0.5;"/><path d="M700.41,42 C704.41,42 707.41,42 711.41,38 C719.41,38 727.41,46 727.41,54 L727.41,58 C727.41,62 723.41,66 719.41,66 L681.41,66 C677.41,66 673.41,62 673.41,58 L673.41,54 C673.41,46 681.41,38 689.41,38 C693.41,42 696.41,42 700.41,42" fill="#F1F1F1" style="stroke:#181818;stroke-width:0.5;"/><text fill="#000000" font-family="Apple SD Gothic Neo" font-size="14" lengthAdjust="spacing" textLength="72.66" x="664.08" y="79.1">&#53664;&#49828;&#54168;&#51060;&#47676;&#52768;</text></g><!--entity openai--><g class="entity" data-entity="openai" data-source-line="14" data-uid="ent0008" id="entity_openai"><ellipse cx="1102.01" cy="1066" fill="#F1F1F1" rx="16" ry="16" style="stroke:#181818;stroke-width:0.5;"/><path d="M1102.01,1086 C1106.01,1086 1109.01,1086 1113.01,1082 C1121.01,1082 1129.01,1090 1129.01,1098 L1129.01,1102 C1129.01,1106 1125.01,1110 1121.01,1110 L1083.01,1110 C1079.01,1110 1075.01,1106 1075.01,1102 L1075.01,1098 C1075.01,1090 1083.01,1082 1091.01,1082 C1095.01,1086 1098.01,1086 1102.01,1086" fill="#F1F1F1" style="stroke:#181818;stroke-width:0.5;"/><text fill="#000000" font-family="Apple SD Gothic Neo" font-size="14" lengthAdjust="spacing" textLength="43.806" x="1080.107" y="1123.1">OpenAI</text></g><!--link member to guest--><g class="link" data-entity-1="member" data-entity-2="guest" data-source-line="16" data-uid="lnk9" id="link_member_guest"><path d="M184.41,952.85 C203.09,940.32 211.7775,934.4811 229.7275,922.4511" fill="none" id="member-to-guest" style="stroke:#181818;stroke-width:1;"/><polygon fill="none" points="244.68,912.43,226.3871,917.4669,233.0679,927.4353,244.68,912.43" style="stroke:#181818;stroke-width:1;"/></g><!--link seller to member--><g class="link" data-entity-1="seller" data-entity-2="member" data-source-line="17" data-uid="lnk10" id="link_seller_member"><path d="M46.72,581.8 C69.35,666.16 111.7076,824.0243 134.3576,908.4843" fill="none" id="seller-to-member" style="stroke:#181818;stroke-width:1;"/><polygon fill="none" points="139.02,925.87,140.1528,906.9302,128.5624,910.0384,139.02,925.87" style="stroke:#181818;stroke-width:1;"/></g><!--link guest to UC01--><g class="link" data-entity-1="guest" data-entity-2="UC01" data-source-line="43" data-uid="lnk33" id="link_guest_UC01"><path d="M296.43,846.82 C307.2,828.62 321.55,808.98 339.05,795.4 C357.02,781.46 375.4619,774.5857 395.0019,769.8057" fill="none" id="guest-to-UC01" style="stroke:#181818;stroke-width:1;"/><polygon fill="#181818" points="400.83,768.38,391.1373,766.6331,395.9732,769.5681,393.0383,774.404,400.83,768.38" style="stroke:#181818;stroke-width:1;"/></g><!--link guest to UC02--><g class="link" data-entity-1="guest" data-entity-2="UC02" data-source-line="44" data-uid="lnk34" id="link_guest_UC02"><path d="M300.26,879.93 C311.99,873.84 326.03,866.91 339.05,861.4 C356.61,853.97 370.7892,848.7914 387.8192,843.1014" fill="none" id="guest-to-UC02" style="stroke:#181818;stroke-width:1;"/><polygon fill="#181818" points="393.51,841.2,383.7063,840.2582,388.7677,842.7845,386.2414,847.8459,393.51,841.2" style="stroke:#181818;stroke-width:1;"/></g><!--link guest to UC08--><g class="link" data-entity-1="guest" data-entity-2="UC08" data-source-line="45" data-uid="lnk35" id="link_guest_UC08"><path d="M300.45,894.4 C319.66,894.4 340.34,894.4 364.82,894.4" fill="none" id="guest-to-UC08" style="stroke:#181818;stroke-width:1;"/><polygon fill="#181818" points="370.82,894.4,361.82,890.4,365.82,894.4,361.82,898.4,370.82,894.4" style="stroke:#181818;stroke-width:1;"/></g><!--link guest to UC18--><g class="link" data-entity-1="guest" data-entity-2="UC18" data-source-line="46" data-uid="lnk36" id="link_guest_UC18"><path d="M300.23,908.93 C311.96,915.03 326.01,921.96 339.05,927.4 C358.69,935.6 375.5091,941.4414 393.7291,947.2014" fill="none" id="guest-to-UC18" style="stroke:#181818;stroke-width:1;"/><polygon fill="#181818" points="399.45,949.01,392.0743,942.4832,394.6826,947.5028,389.6629,950.1111,399.45,949.01" style="stroke:#181818;stroke-width:1;"/></g><!--link member to UC03--><g class="link" data-entity-1="member" data-entity-2="UC03" data-source-line="47" data-uid="lnk37" id="link_member_UC03"><path d="M184.33,979.06 C231.61,987.83 317.2105,1003.6964 375.4205,1014.4864" fill="none" id="member-to-UC03" style="stroke:#181818;stroke-width:1;"/><polygon fill="#181818" points="381.32,1015.58,373.1998,1010.0067,376.4037,1014.6687,371.7417,1017.8727,381.32,1015.58" style="stroke:#181818;stroke-width:1;"/></g><!--link member to UC04--><g class="link" data-entity-1="member" data-entity-2="UC04" data-source-line="48" data-uid="lnk38" id="link_member_UC04"><path d="M184.24,987.44 C220.93,1004.34 284.46,1033.55 339.05,1058.4 C357.38,1066.74 372.2406,1073.463 389.4006,1081.203" fill="none" id="member-to-UC04" style="stroke:#181818;stroke-width:1;"/><polygon fill="#181818" points="394.87,1083.67,388.3106,1076.3233,390.3122,1081.6142,385.0213,1083.6158,394.87,1083.67" style="stroke:#181818;stroke-width:1;"/></g><!--link member to UC05--><g class="link" data-entity-1="member" data-entity-2="UC05" data-source-line="49" data-uid="lnk39" id="link_member_UC05"><path d="M184.5,1009.49 C218.75,1047.72 277.46,1107.52 339.05,1144.4 C354.21,1153.48 366.5161,1158.6992 382.7761,1163.9092" fill="none" id="member-to-UC05" style="stroke:#181818;stroke-width:1;"/><polygon fill="#181818" points="388.49,1165.74,381.1398,1159.1845,383.7285,1164.2143,378.6987,1166.803,388.49,1165.74" style="stroke:#181818;stroke-width:1;"/></g><!--link member to UC06--><g class="link" data-entity-1="member" data-entity-2="UC06" data-source-line="50" data-uid="lnk40" id="link_member_UC06"><path d="M158.43,1020.95 C170.09,1109.25 209.69,1294.02 339.05,1343.4 C408.99,1370.09 434.82,1361.42 507.48,1343.4 C567.49,1328.52 575.41,1306.52 630.48,1278.4 C642.96,1272.03 651.4029,1267.8019 663.3929,1261.9219" fill="none" id="member-to-UC06" style="stroke:#181818;stroke-width:1;"/><polygon fill="#181818" points="668.78,1259.28,658.9381,1259.6514,664.2908,1261.4816,662.4606,1266.8342,668.78,1259.28" style="stroke:#181818;stroke-width:1;"/></g><!--link member to UC07--><g class="link" data-entity-1="member" data-entity-2="UC07" data-source-line="51" data-uid="lnk41" id="link_member_UC07"><path d="M153.95,1020.99 C155.71,1154.07 169.8,1520.4 271.55,1520.4 C271.55,1520.4 271.55,1520.4 701.41,1520.4 C829.18,1520.4 916.3598,1360.6425 941.2998,1309.0225" fill="none" id="member-to-UC07" style="stroke:#181818;stroke-width:1;"/><polygon fill="#181818" points="943.91,1303.62,936.3931,1309.9836,941.7348,1308.1221,943.5964,1313.4639,943.91,1303.62" style="stroke:#181818;stroke-width:1;"/></g><!--link member to UC10--><g class="link" data-entity-1="member" data-entity-2="UC10" data-source-line="52" data-uid="lnk42" id="link_member_UC10"><path d="M177.61,1020.97 C194.36,1052.19 218.46,1093.07 245.05,1125.4 C280.83,1168.9 290.58,1181.71 339.05,1210.4 C355.76,1220.29 370.1432,1226.0524 387.5732,1231.3924" fill="none" id="member-to-UC10" style="stroke:#181818;stroke-width:1;"/><polygon fill="#181818" points="393.31,1233.15,385.8765,1226.6891,388.5293,1231.6854,383.5331,1234.3382,393.31,1233.15" style="stroke:#181818;stroke-width:1;"/></g><!--link member to UC11--><g class="link" data-entity-1="member" data-entity-2="UC11" data-source-line="53" data-uid="lnk43" id="link_member_UC11"><path d="M166.74,1020.96 C180.96,1067.56 206.94,1139.14 245.05,1192.4 C277.49,1237.72 291.05,1247.07 339.05,1275.4 C354.32,1284.41 366.6672,1289.7047 382.9172,1295.1147" fill="none" id="member-to-UC11" style="stroke:#181818;stroke-width:1;"/><polygon fill="#181818" points="388.61,1297.01,381.3343,1290.3719,383.866,1295.4306,378.8073,1297.9623,388.61,1297.01" style="stroke:#181818;stroke-width:1;"/></g><!--link member to UC12--><g class="link" data-entity-1="member" data-entity-2="UC12" data-source-line="54" data-uid="lnk44" id="link_member_UC12"><path d="M156.1,925.68 C163.08,797.23 187.07,447.24 245.05,349.4 C275.17,298.57 289.27,287.22 339.05,255.4 C353.59,246.1 365.2775,240.7551 381.1775,235.2751" fill="none" id="member-to-UC12" style="stroke:#181818;stroke-width:1;"/><polygon fill="#181818" points="386.85,233.32,377.0378,232.4709,382.1229,234.9492,379.6446,240.0343,386.85,233.32" style="stroke:#181818;stroke-width:1;"/></g><!--link member to UC13--><g class="link" data-entity-1="member" data-entity-2="UC13" data-source-line="55" data-uid="lnk45" id="link_member_UC13"><path d="M156.46,925.83 C164.04,805.27 188.78,491.22 245.05,405.4 C275.93,358.3 290.58,349.09 339.05,320.4 C355.46,310.69 369.4276,305.032 386.6376,299.712" fill="none" id="member-to-UC13" style="stroke:#181818;stroke-width:1;"/><polygon fill="#181818" points="392.37,297.94,382.5901,296.7764,387.593,299.4167,384.9528,304.4196,392.37,297.94" style="stroke:#181818;stroke-width:1;"/></g><!--link member to UC14--><g class="link" data-entity-1="member" data-entity-2="UC14" data-source-line="56" data-uid="lnk46" id="link_member_UC14"><path d="M160.34,1021 C173.13,1107.34 203.78,1285.03 245.05,1330.4 C358.36,1454.95 592.7303,1360.6518 669.6703,1324.8418" fill="none" id="member-to-UC14" style="stroke:#181818;stroke-width:1;"/><polygon fill="#181818" points="675.11,1322.31,665.2626,1322.4812,670.5769,1324.4198,668.6383,1329.7341,675.11,1322.31" style="stroke:#181818;stroke-width:1;"/></g><!--link member to UC15--><g class="link" data-entity-1="member" data-entity-2="UC15" data-source-line="57" data-uid="lnk47" id="link_member_UC15"><path d="M156.71,925.94 C164.55,812.5 189.33,529.61 245.05,455.4 C289.29,396.48 371.6977,368.8149 410.0077,358.4649" fill="none" id="member-to-UC15" style="stroke:#181818;stroke-width:1;"/><polygon fill="#181818" points="415.8,356.9,406.0682,355.3858,410.9731,358.2041,408.1548,363.1089,415.8,356.9" style="stroke:#181818;stroke-width:1;"/></g><!--link member to UC16--><g class="link" data-entity-1="member" data-entity-2="UC16" data-source-line="58" data-uid="lnk48" id="link_member_UC16"><path d="M157.2,925.93 C165.78,819.44 191.44,565.77 245.05,501.4 C278.69,461.02 331.3798,443.7128 374.4698,435.3528" fill="none" id="member-to-UC16" style="stroke:#181818;stroke-width:1;"/><polygon fill="#181818" points="380.36,434.21,370.7629,431.9974,375.4515,435.1623,372.2866,439.8509,380.36,434.21" style="stroke:#181818;stroke-width:1;"/></g><!--link member to UC17--><g class="link" data-entity-1="member" data-entity-2="UC17" data-source-line="59" data-uid="lnk49" id="link_member_UC17"><path d="M169.2,925.78 C184.66,881.8 211.02,815.71 245.05,764.4 C278.59,713.84 288.05,698.27 339.05,665.4 C357.73,653.36 375.5247,646.7408 394.5447,641.5108" fill="none" id="member-to-UC17" style="stroke:#181818;stroke-width:1;"/><polygon fill="#181818" points="400.33,639.92,390.5916,638.4493,395.5089,641.2457,392.7126,646.163,400.33,639.92" style="stroke:#181818;stroke-width:1;"/></g><!--link member to UC21--><g class="link" data-entity-1="member" data-entity-2="UC21" data-source-line="60" data-uid="lnk50" id="link_member_UC21"><path d="M177.05,925.6 C206.75,869.85 263.47,779.11 339.05,730.4 C355.82,719.6 370.7746,713.5656 388.5946,708.3156" fill="none" id="member-to-UC21" style="stroke:#181818;stroke-width:1;"/><polygon fill="#181818" points="394.35,706.62,384.5865,705.3265,389.5538,708.033,386.8473,713.0004,394.35,706.62" style="stroke:#181818;stroke-width:1;"/></g><!--link seller to UC09--><g class="link" data-entity-1="seller" data-entity-2="UC09" data-source-line="61" data-uid="lnk51" id="link_seller_UC09"><path d="M60.98,491.03 C108.5,418.05 214.02,270.42 339.05,186.4 C353.23,176.87 364.6669,171.4934 380.4369,166.0634" fill="none" id="seller-to-UC09" style="stroke:#181818;stroke-width:1;"/><polygon fill="#181818" points="386.11,164.11,376.2981,163.258,381.3824,165.7378,378.9026,170.8222,386.11,164.11" style="stroke:#181818;stroke-width:1;"/></g><!--link admin to UC19--><g class="link" data-entity-1="admin" data-entity-2="UC19" data-source-line="62" data-uid="lnk52" id="link_admin_UC19"><path d="M300.35,552.91 C312.09,547.21 326.12,540.68 339.05,535.4 C359.13,527.2 376.4036,521.0843 394.7536,515.0143" fill="none" id="admin-to-UC19" style="stroke:#181818;stroke-width:1;"/><polygon fill="#181818" points="400.45,513.13,390.6491,512.1589,395.703,514.7003,393.1616,519.7541,400.45,513.13" style="stroke:#181818;stroke-width:1;"/></g><!--link admin to UC20--><g class="link" data-entity-1="admin" data-entity-2="UC20" data-source-line="63" data-uid="lnk53" id="link_admin_UC20"><path d="M300.45,566.57 C320.83,566.69 343.5901,566.8326 369.2301,566.9926" fill="none" id="admin-to-UC20" style="stroke:#181818;stroke-width:1;"/><polygon fill="#181818" points="375.23,567.03,366.2551,562.9739,370.2301,566.9988,366.2052,570.9738,375.23,567.03" style="stroke:#181818;stroke-width:1;"/></g><!--link UC06 to UC07--><g class="link" data-entity-1="UC06" data-entity-2="UC07" data-source-line="65" data-uid="lnk54" id="link_UC06_UC07"><path d="M757.41,1254.27 C800.94,1261.95 854.8212,1271.4476 896.3712,1278.7776" fill="none" id="UC06-to-UC07" style="stroke:#181818;stroke-width:1;stroke-dasharray:7,7;"/><polygon fill="#181818" points="902.28,1279.82,894.1118,1274.3172,897.356,1278.9513,892.7219,1282.1956,902.28,1279.82" style="stroke:#181818;stroke-width:1;"/><text fill="#000000" font-family="Apple SD Gothic Neo" font-size="13" lengthAdjust="spacing" textLength="60.294" x="801.34" y="1258.16">&#171;extend&#187;</text></g><!--link UC15 to UC14--><g class="link" data-entity-1="UC15" data-entity-2="UC14" data-source-line="66" data-uid="lnk55" id="link_UC15_UC14"><path d="M455.23,355.91 C471.76,360.01 495,368.53 507.48,385.4 C522.37,405.53 615.59,1258.26 630.48,1278.4 C639.1,1290.07 647.4196,1295.5468 660.5096,1300.3668" fill="none" id="UC15-to-UC14" style="stroke:#181818;stroke-width:1;stroke-dasharray:7,7;"/><polygon fill="#181818" points="666.14,1302.44,659.0765,1295.5765,661.448,1300.7123,656.3122,1303.0838,666.14,1302.44" style="stroke:#181818;stroke-width:1;"/><text fill="#000000" font-family="Apple SD Gothic Neo" font-size="13" lengthAdjust="spacing" textLength="61.685" x="538.48" y="579.06">&#171;include&#187;</text></g><!--link UC13 to UC06--><g class="link" data-entity-1="UC13" data-entity-2="UC06" data-source-line="67" data-uid="lnk56" id="link_UC13_UC06"><path d="M476.53,298.43 C488.05,303.4 499.6,310.47 507.48,320.4 C626.39,470.23 687.5319,1109.4733 697.4519,1221.7333" fill="none" id="UC13-to-UC06" style="stroke:#181818;stroke-width:1;stroke-dasharray:7,7;"/><polygon fill="#181818" points="697.98,1227.71,701.1723,1218.3928,697.5399,1222.7294,693.2033,1219.097,697.98,1227.71" style="stroke:#181818;stroke-width:1;"/><text fill="#000000" font-family="Apple SD Gothic Neo" font-size="13" lengthAdjust="spacing" textLength="60.294" x="538.98" y="381.89">&#171;extend&#187;</text></g><!--link UC06 to ai--><g class="link" data-entity-1="UC06" data-entity-2="ai" data-source-line="68" data-uid="lnk57" id="link_UC06_ai"><path d="M736.92,1258.74 C748.14,1264.09 760.24,1270.74 770.34,1278.4 C833.34,1326.14 888.0552,1393.3086 920.5552,1436.9286" fill="none" id="UC06-to-ai" style="stroke:#181818;stroke-width:1;"/><polygon fill="#181818" points="924.14,1441.74,921.9704,1432.1331,921.1527,1437.7305,915.5552,1436.9128,924.14,1441.74" style="stroke:#181818;stroke-width:1;"/></g><!--link ai to openai--><g class="link" data-entity-1="ai" data-entity-2="openai" data-source-line="69" data-uid="lnk58" id="link_ai_openai"><path d="M979.91,1441.13 C997.8,1414.27 1020.64,1376.94 1035.51,1341.4 C1065.9,1268.78 1084.1113,1184.2922 1093.3813,1133.5722" fill="none" id="ai-to-openai" style="stroke:#181818;stroke-width:1;"/><polygon fill="#181818" points="1094.46,1127.67,1088.9071,1135.8042,1093.5611,1132.5885,1096.7767,1137.2425,1094.46,1127.67" style="stroke:#181818;stroke-width:1;"/></g><!--link UC15 to toss--><g class="link" data-entity-1="UC15" data-entity-2="toss" data-source-line="70" data-uid="lnk59" id="link_UC15_toss"><path d="M454.62,347.21 C470.1,342.11 492.12,333.09 507.48,319.4 C585.68,249.73 567.13,201.8 630.48,118.4 C640.57,105.12 648.5384,95.8603 659.7584,83.9903" fill="none" id="UC15-to-toss" style="stroke:#181818;stroke-width:1;"/><polygon fill="#181818" points="663.88,79.63,654.7907,83.4228,660.4454,83.2636,660.6045,88.9182,663.88,79.63" style="stroke:#181818;stroke-width:1;"/></g><!--link UC21 to openai--><g class="link" data-entity-1="UC21" data-entity-2="openai" data-source-line="71" data-uid="lnk60" id="link_UC21_openai"><path d="M465.03,709.87 C478.14,715.77 493.76,723.11 507.48,730.4 C732.51,849.95 986.3267,1013.3787 1069.0867,1067.4387" fill="none" id="UC21-to-openai" style="stroke:#181818;stroke-width:1;"/><polygon fill="#181818" points="1074.11,1070.72,1068.7626,1062.4492,1069.9239,1067.9856,1064.3876,1069.1469,1074.11,1070.72" style="stroke:#181818;stroke-width:1;"/></g><!--SRC=[RPHTJzDG6CVl-obEk88B6EKTGvOiW4W28u5unqtP3gEXQvUs4usQJ5OLtJGecuwNpQ4JC9ccWmapB5xuSNfEluEdxSxigRlP-k_pE-V_lFGS2MxgG5U0AYQsT10NLHZJHKNcj6rHJWcga0JQbX1NTaGv0JO5IOE-I4g8RGi9kAO_aY1m5WfoGl83GanNL2yix41DIVg3SRWff2NzhYBhKI49GLyabIBWsXnOKFGjCGQYKEdpyHl4BQ4gQJa-gqYA2dHLa3KIWhBESQuJw4E_3FieZu_tr-N-XJJKz84-86WWuJnI1fVRo2nriUZAwd9aoUEICBa1LGhQ-NrqNiCLXrgRNrgQN_Ke3KhIFyfgPj1PtQCYSykBKGyIuabHfana4Qn1zG5KlP3OTNXHnQzhzjiIBZVHHHktgYwWAvf6aPKKb2EBxck5F9Ard9Sb61ny4kvKvcNalUdKm7NdGMoAXzRl5kY_9snlfqbwZpa0qXgC2PeJT1jXcHbSUUxQt9yTvlq0EZsnRbgut08Xq7ak6lWuI-4HFunB5-YgYGhV-h5HjKijW8qQhXO7A3pAxBpR12H85loviGi6sTmk6kioFZL9KY6yLo91kd2CoJbV830-CabA-4EhAoayxeT9y-qtRT9dPEpZsphwL0Vut42v2qfFC0Mu8M1TcjPL6zY7HL8u1ISPCFlCVhy7l6H97jPb1cTVKNIg1ueE6kYqtAahX7U_u-e9vQSPll8LcGNhPntbze3tVNKuVhXN2kQ9qmVoYp_ddDaS5IZE3lAiZcvCW2lliD7ecGRFp1ATL_1r3L2NwmA-x8BC7F6NDggJKMVBP6DAC0CZxVIvCEF1jpNqeqOgjNFckcorCY6KFt3-_Yk6dLCnZyxQdVPJOf9DlsOrJ3BF03JL6sBxFDshprK3NpPPS6GuyAdXnaVKVEaq3UMQ5EAvfnpd7bLoHiFU2MFa22kd64aoxXxvi7U8M3qMqEC1FH7Gawmc7nMh-O0U2UY0Fn_mvmF-VC2V3_YJzdGliB1t6DpRa-Ai91tdd9h0q91N3BW3PcRWGntAyN2OS-mx8NxC3OboJ4h7eHSRfSicWil86yV0kPn5zwbptReREjgzbPriVT6_]--></g></svg>